<mxfile host="app.diagrams.net" modified="2022-03-18T06:10:58.910Z" agent="5.0 (Windows NT 10.0; Win64; x64) AppleWebKit/537.36 (KHTML, like Gecko) Chrome/99.0.4844.51 Safari/537.36 Edg/99.0.1150.39" etag="Uf5LOCbdt5keRM6bCMoQ" version="17.1.2" type="github">
  <diagram id="OOybOWI9zLrt1ZNBdLxd" name="Page-1">
    <mxGraphModel dx="1038" dy="579" grid="1" gridSize="10" guides="1" tooltips="1" connect="1" arrows="1" fold="1" page="1" pageScale="1" pageWidth="827" pageHeight="1169" math="0" shadow="0">
      <root>
        <mxCell id="0" />
        <mxCell id="1" parent="0" />
        <mxCell id="4T8P1lf2ftTzK5thKm8J-2" value="" style="rounded=1;whiteSpace=wrap;html=1;strokeWidth=2;fillWeight=4;hachureGap=8;hachureAngle=45;fillColor=#d5e8d4;sketch=1;strokeColor=#82b366;" vertex="1" parent="1">
          <mxGeometry x="80" y="50" width="540" height="50" as="geometry" />
        </mxCell>
        <mxCell id="4T8P1lf2ftTzK5thKm8J-3" value="" style="shape=waypoint;sketch=0;fillStyle=solid;size=6;pointerEvents=1;points=[];fillColor=none;resizable=0;rotatable=0;perimeter=centerPerimeter;snapToPoint=1;" vertex="1" parent="1">
          <mxGeometry x="140" y="45" width="40" height="40" as="geometry" />
        </mxCell>
        <mxCell id="4T8P1lf2ftTzK5thKm8J-8" style="edgeStyle=orthogonalEdgeStyle;rounded=0;orthogonalLoop=1;jettySize=auto;html=1;fillColor=#ffe6cc;strokeColor=#d79b00;" edge="1" parent="1" source="4T8P1lf2ftTzK5thKm8J-4" target="4T8P1lf2ftTzK5thKm8J-3">
          <mxGeometry relative="1" as="geometry">
            <Array as="points">
              <mxPoint x="340" y="30" />
              <mxPoint x="160" y="30" />
            </Array>
          </mxGeometry>
        </mxCell>
        <mxCell id="4T8P1lf2ftTzK5thKm8J-4" value="" style="shape=waypoint;sketch=0;fillStyle=solid;size=6;pointerEvents=1;points=[];fillColor=none;resizable=0;rotatable=0;perimeter=centerPerimeter;snapToPoint=1;" vertex="1" parent="1">
          <mxGeometry x="320" y="45" width="40" height="40" as="geometry" />
        </mxCell>
        <mxCell id="4T8P1lf2ftTzK5thKm8J-9" value="&lt;b&gt;&lt;font style=&quot;font-size: 15px&quot; face=&quot;Comic Sans MS&quot;&gt;i&lt;/font&gt;&lt;/b&gt;" style="text;html=1;strokeColor=none;fillColor=none;align=center;verticalAlign=middle;whiteSpace=wrap;rounded=0;" vertex="1" parent="1">
          <mxGeometry x="310" y="60" width="60" height="30" as="geometry" />
        </mxCell>
        <mxCell id="4T8P1lf2ftTzK5thKm8J-10" value="&lt;b&gt;&lt;font style=&quot;font-size: 15px&quot; face=&quot;Comic Sans MS&quot;&gt;x&lt;/font&gt;&lt;/b&gt;" style="text;html=1;strokeColor=none;fillColor=none;align=center;verticalAlign=middle;whiteSpace=wrap;rounded=0;" vertex="1" parent="1">
          <mxGeometry x="130" y="60" width="60" height="30" as="geometry" />
        </mxCell>
        <mxCell id="4T8P1lf2ftTzK5thKm8J-11" value="&lt;b&gt;&lt;font style=&quot;font-size: 15px&quot; face=&quot;Comic Sans MS&quot;&gt;j&lt;/font&gt;&lt;/b&gt;" style="text;html=1;strokeColor=none;fillColor=none;align=center;verticalAlign=middle;whiteSpace=wrap;rounded=0;" vertex="1" parent="1">
          <mxGeometry x="430" y="60" width="60" height="30" as="geometry" />
        </mxCell>
        <mxCell id="4T8P1lf2ftTzK5thKm8J-14" value="" style="shape=waypoint;sketch=0;fillStyle=solid;size=6;pointerEvents=1;points=[];fillColor=none;resizable=0;rotatable=0;perimeter=centerPerimeter;snapToPoint=1;" vertex="1" parent="1">
          <mxGeometry x="100" y="45" width="40" height="40" as="geometry" />
        </mxCell>
        <mxCell id="4T8P1lf2ftTzK5thKm8J-20" style="edgeStyle=orthogonalEdgeStyle;rounded=0;orthogonalLoop=1;jettySize=auto;html=1;entryX=0.66;entryY=0.43;entryDx=0;entryDy=0;entryPerimeter=0;fontFamily=Comic Sans MS;fontSize=15;exitX=0.5;exitY=0.365;exitDx=0;exitDy=0;exitPerimeter=0;fillColor=#f8cecc;strokeColor=#b85450;" edge="1" parent="1" source="4T8P1lf2ftTzK5thKm8J-19" target="4T8P1lf2ftTzK5thKm8J-14">
          <mxGeometry relative="1" as="geometry">
            <Array as="points">
              <mxPoint x="460" y="10" />
              <mxPoint x="120" y="10" />
            </Array>
          </mxGeometry>
        </mxCell>
        <mxCell id="4T8P1lf2ftTzK5thKm8J-19" value="" style="shape=waypoint;sketch=0;fillStyle=solid;size=6;pointerEvents=1;points=[];fillColor=none;resizable=0;rotatable=0;perimeter=centerPerimeter;snapToPoint=1;" vertex="1" parent="1">
          <mxGeometry x="440" y="45" width="40" height="40" as="geometry" />
        </mxCell>
        <mxCell id="4T8P1lf2ftTzK5thKm8J-22" value="&lt;b&gt;&lt;font style=&quot;font-size: 15px&quot; face=&quot;Comic Sans MS&quot;&gt;y&lt;/font&gt;&lt;/b&gt;" style="text;html=1;strokeColor=none;fillColor=none;align=center;verticalAlign=middle;whiteSpace=wrap;rounded=0;" vertex="1" parent="1">
          <mxGeometry x="90" y="60" width="60" height="30" as="geometry" />
        </mxCell>
        <mxCell id="4T8P1lf2ftTzK5thKm8J-24" value="" style="rounded=1;whiteSpace=wrap;html=1;strokeWidth=2;fillWeight=4;hachureGap=8;hachureAngle=45;fillColor=#1ba1e2;sketch=1;fontFamily=Comic Sans MS;fontSize=15;" vertex="1" parent="1">
          <mxGeometry x="100" y="430" width="30" height="150" as="geometry" />
        </mxCell>
        <mxCell id="4T8P1lf2ftTzK5thKm8J-25" value="" style="rounded=1;whiteSpace=wrap;html=1;strokeWidth=2;fillWeight=4;hachureGap=8;hachureAngle=45;fillColor=#1ba1e2;sketch=1;fontFamily=Comic Sans MS;fontSize=15;" vertex="1" parent="1">
          <mxGeometry x="160" y="400" width="30" height="180" as="geometry" />
        </mxCell>
        <mxCell id="4T8P1lf2ftTzK5thKm8J-26" value="" style="rounded=1;whiteSpace=wrap;html=1;strokeWidth=2;fillWeight=4;hachureGap=8;hachureAngle=45;fillColor=#1ba1e2;sketch=1;fontFamily=Comic Sans MS;fontSize=15;" vertex="1" parent="1">
          <mxGeometry x="220" y="350" width="30" height="230" as="geometry" />
        </mxCell>
        <mxCell id="4T8P1lf2ftTzK5thKm8J-32" style="edgeStyle=orthogonalEdgeStyle;rounded=0;orthogonalLoop=1;jettySize=auto;html=1;exitX=0;exitY=0.5;exitDx=0;exitDy=0;fontFamily=Comic Sans MS;fontSize=15;fillColor=#fff2cc;strokeColor=#d6b656;" edge="1" parent="1" source="4T8P1lf2ftTzK5thKm8J-27">
          <mxGeometry relative="1" as="geometry">
            <mxPoint x="260" y="520" as="targetPoint" />
          </mxGeometry>
        </mxCell>
        <mxCell id="4T8P1lf2ftTzK5thKm8J-27" value="" style="rounded=1;whiteSpace=wrap;html=1;strokeWidth=2;fillWeight=4;hachureGap=8;hachureAngle=45;fillColor=#f8cecc;sketch=1;fontFamily=Comic Sans MS;fontSize=15;strokeColor=#b85450;" vertex="1" parent="1">
          <mxGeometry x="480" y="460" width="30" height="120" as="geometry" />
        </mxCell>
        <mxCell id="4T8P1lf2ftTzK5thKm8J-29" value="" style="line;strokeWidth=4;html=1;perimeter=backbonePerimeter;points=[];outlineConnect=0;fontFamily=Comic Sans MS;fontSize=15;fillColor=#b0e3e6;strokeColor=#0e8088;" vertex="1" parent="1">
          <mxGeometry x="70" y="580" width="610" height="10" as="geometry" />
        </mxCell>
        <mxCell id="4T8P1lf2ftTzK5thKm8J-30" value="pref[i]" style="text;html=1;align=center;verticalAlign=middle;resizable=0;points=[];autosize=1;strokeColor=none;fillColor=none;fontSize=15;fontFamily=Comic Sans MS;" vertex="1" parent="1">
          <mxGeometry x="465" y="430" width="60" height="20" as="geometry" />
        </mxCell>
        <mxCell id="4T8P1lf2ftTzK5thKm8J-31" value="pref[?]" style="text;html=1;align=center;verticalAlign=middle;resizable=0;points=[];autosize=1;strokeColor=none;fillColor=none;fontSize=15;fontFamily=Comic Sans MS;" vertex="1" parent="1">
          <mxGeometry x="210" y="320" width="70" height="20" as="geometry" />
        </mxCell>
        <mxCell id="4T8P1lf2ftTzK5thKm8J-34" value="&lt;p&gt;前面的没我厉害还&lt;span&gt;比我老，可以换人了&lt;/span&gt;&lt;/p&gt;" style="ellipse;shape=cloud;whiteSpace=wrap;html=1;fontFamily=Comic Sans MS;fontSize=15;" vertex="1" parent="1">
          <mxGeometry x="270" y="415" width="180" height="100" as="geometry" />
        </mxCell>
      </root>
    </mxGraphModel>
  </diagram>
</mxfile>
